<svg xmlns="http://www.w3.org/2000/svg" xmlns:xlink="http://www.w3.org/1999/xlink" width="23.947021484375" height="23.65234375" viewBox="0 0 22 21" fill="none">
    <path d="M18.7134 6.96293L18.4674 7.51574C18.465 7.52134 18.4625 7.52688 18.4599 7.53236C18.4573 7.53785 18.4546 7.54332 18.4518 7.5487C18.449 7.55413 18.4462 7.55946 18.4432 7.56475C18.4401 7.57006 18.437 7.5753 18.4338 7.58047C18.4306 7.58567 18.4273 7.5908 18.424 7.59586C18.4206 7.60094 18.4171 7.60593 18.4135 7.61087C18.4099 7.61582 18.4062 7.62069 18.4025 7.62548C18.3987 7.63031 18.3949 7.63507 18.391 7.63974C18.387 7.64439 18.383 7.64901 18.3789 7.65354C18.3747 7.65805 18.3705 7.66249 18.3663 7.66686C18.362 7.67126 18.3576 7.67556 18.3532 7.67978C18.3487 7.68399 18.3442 7.68813 18.3396 7.69218C18.335 7.69626 18.3303 7.70024 18.3256 7.70411C18.3209 7.708 18.316 7.7118 18.3111 7.71551C18.3063 7.71924 18.3013 7.72288 18.2963 7.72641C18.2912 7.72993 18.2861 7.73339 18.281 7.73673C18.2758 7.74009 18.2706 7.74337 18.2654 7.74655C18.2601 7.74971 18.2547 7.7528 18.2493 7.75575C18.2439 7.75873 18.2385 7.76161 18.233 7.76438C18.2275 7.76717 18.2219 7.76985 18.2163 7.77244C18.2107 7.77503 18.205 7.7775 18.1994 7.77988C18.1937 7.78226 18.1879 7.78455 18.1821 7.78672C18.1763 7.7889 18.1705 7.79096 18.1647 7.79293C18.1588 7.7949 18.1529 7.79675 18.147 7.79849C18.141 7.80025 18.1351 7.8019 18.1291 7.80343C18.1231 7.80499 18.1171 7.80641 18.111 7.80776C18.105 7.80907 18.0989 7.81028 18.0928 7.8114C18.0867 7.81248 18.0806 7.81348 18.0745 7.81438C18.0684 7.81525 18.0622 7.81602 18.056 7.81671C18.0499 7.81738 18.0437 7.81792 18.0375 7.81838C18.0313 7.81882 18.0252 7.81914 18.019 7.81934C18.0128 7.81957 18.0066 7.81971 18.0004 7.81971C17.9942 7.81971 17.988 7.81957 17.9818 7.81934C17.9756 7.81914 17.9694 7.81882 17.9633 7.81838C17.9571 7.81792 17.9509 7.81738 17.9447 7.81671C17.9386 7.81602 17.9324 7.81525 17.9263 7.81438C17.9202 7.81348 17.9141 7.81248 17.908 7.8114C17.9019 7.81028 17.8958 7.80907 17.8898 7.80776C17.8837 7.80641 17.8777 7.80499 17.8717 7.80343C17.8657 7.8019 17.8597 7.80025 17.8538 7.79849C17.8479 7.79675 17.842 7.7949 17.8361 7.79293C17.8302 7.79096 17.8244 7.7889 17.8186 7.78672C17.8129 7.78455 17.8071 7.78226 17.8014 7.77988C17.7957 7.7775 17.7901 7.77503 17.7845 7.77244C17.7788 7.76985 17.7733 7.76717 17.7678 7.76438C17.7623 7.76161 17.7568 7.75873 17.7514 7.75575C17.7461 7.7528 17.7407 7.74971 17.7354 7.74655C17.7301 7.74337 17.7249 7.74009 17.7198 7.73673C17.7146 7.73339 17.7095 7.72993 17.7045 7.72641C17.6995 7.72288 17.6945 7.71924 17.6896 7.71551C17.6847 7.7118 17.6799 7.70798 17.6752 7.70411C17.6704 7.70022 17.6658 7.69626 17.6612 7.69218C17.6565 7.68813 17.652 7.68399 17.6476 7.67978C17.6431 7.67556 17.6388 7.67126 17.6345 7.66686C17.6302 7.66249 17.626 7.65805 17.6219 7.65354C17.6178 7.64901 17.6138 7.64439 17.6098 7.63974C17.6059 7.63507 17.602 7.63031 17.5983 7.62548C17.5945 7.62069 17.5908 7.61582 17.5873 7.61087C17.5837 7.60593 17.5802 7.60094 17.5768 7.59586C17.5734 7.5908 17.5701 7.58567 17.5669 7.58047C17.5637 7.5753 17.5606 7.57006 17.5576 7.56475C17.5546 7.55946 17.5517 7.55413 17.5489 7.5487C17.5461 7.54332 17.5434 7.53785 17.5409 7.53236C17.5383 7.52688 17.5358 7.52134 17.5334 7.51574L17.2874 6.96293C17.274 6.93272 17.2603 6.90268 17.2462 6.87277C17.2321 6.84289 17.2177 6.81316 17.2029 6.78358C17.1881 6.75401 17.173 6.72461 17.1575 6.6954C17.142 6.66617 17.1262 6.63712 17.11 6.60826C17.0938 6.57939 17.0773 6.55071 17.0605 6.52219C17.0436 6.49371 17.0264 6.46542 17.0089 6.43733C16.9914 6.40919 16.9735 6.38131 16.9553 6.35359C16.9371 6.32589 16.9186 6.2984 16.8998 6.27114C16.8809 6.24383 16.8618 6.21677 16.8423 6.1899C16.8228 6.16307 16.803 6.13644 16.7829 6.11005C16.7628 6.08363 16.7423 6.05747 16.7216 6.03151C16.7009 6.0056 16.6798 5.97989 16.6585 5.95441C16.6372 5.92896 16.6155 5.90375 16.5936 5.87876C16.5716 5.85381 16.5494 5.82908 16.5269 5.80459C16.5043 5.78014 16.4815 5.75592 16.4584 5.73196C16.4353 5.70803 16.4119 5.68434 16.3883 5.6609C16.3646 5.63748 16.3407 5.61434 16.3165 5.59145C16.2922 5.56856 16.2678 5.54596 16.243 5.52362C16.2183 5.50128 16.1932 5.47924 16.168 5.45747C16.1427 5.43572 16.1172 5.41425 16.0914 5.39305C16.0656 5.37188 16.0396 5.351 16.0133 5.33037C15.987 5.30977 15.9605 5.28949 15.9337 5.26948C15.907 5.2495 15.88 5.22981 15.8528 5.2104C15.8255 5.19103 15.7981 5.17197 15.7704 5.15317C15.7427 5.13442 15.7148 5.11597 15.6867 5.09782C15.6586 5.07971 15.6303 5.06188 15.6017 5.04442C15.5732 5.02693 15.5444 5.00976 15.5155 4.99291C15.4865 4.97604 15.4574 4.95953 15.4281 4.94337C15.3987 4.92719 15.3692 4.91133 15.3395 4.89583C15.3098 4.88031 15.2799 4.86511 15.2498 4.85027C15.2197 4.83546 15.1895 4.82095 15.1591 4.8068C15.1286 4.79263 15.0981 4.77883 15.0673 4.76537L14.3083 4.43427C14.3026 4.43171 14.2969 4.42903 14.2913 4.42628C14.2857 4.42351 14.2801 4.42065 14.2746 4.4177C14.2691 4.41472 14.2636 4.41168 14.2582 4.40852C14.2528 4.40536 14.2475 4.40213 14.2422 4.39881C14.2369 4.39545 14.2317 4.39204 14.2265 4.38853C14.2214 4.38499 14.2162 4.38139 14.2112 4.37768C14.2062 4.374 14.2012 4.37022 14.1964 4.36635C14.1915 4.36251 14.1866 4.35855 14.1819 4.3545C14.1772 4.35047 14.1725 4.34637 14.1679 4.34218C14.1633 4.33797 14.1588 4.33369 14.1543 4.32934C14.1499 4.32499 14.1455 4.32055 14.1412 4.31606C14.137 4.31155 14.1328 4.30697 14.1287 4.3023C14.1245 4.29766 14.1205 4.29294 14.1166 4.28816C14.1126 4.28335 14.1088 4.2785 14.105 4.27355C14.1013 4.26865 14.0976 4.26366 14.094 4.2586C14.0904 4.25354 14.0869 4.24844 14.0835 4.24324C14.0801 4.23807 14.0768 4.23285 14.0737 4.22756C14.0704 4.22228 14.0673 4.21692 14.0643 4.21154C14.0613 4.20614 14.0584 4.20069 14.0556 4.19519C14.0528 4.18968 14.0501 4.18414 14.0475 4.17853C14.0448 4.17294 14.0423 4.16734 14.0399 4.16166C14.0375 4.15598 14.0352 4.15026 14.0331 4.14449C14.0309 4.13872 14.0288 4.13293 14.0268 4.12707C14.0248 4.12126 14.0229 4.1154 14.0212 4.10951C14.0194 4.10358 14.0177 4.09768 14.0162 4.0917C14.0146 4.08577 14.0132 4.07978 14.0118 4.07378C14.0105 4.06778 14.0093 4.06174 14.0082 4.0557C14.0071 4.04965 14.0061 4.04359 14.0052 4.03747C14.0043 4.03141 14.0035 4.02532 14.0028 4.01918C14.0021 4.01309 14.0016 4.00698 14.0011 4.00082C14.0007 3.99471 14.0004 3.98858 14.0001 3.98242C13.9999 3.97629 13.9998 3.97013 13.9998 3.96402C13.9998 3.95786 13.9999 3.95172 14.0001 3.94557C14.0004 3.93943 14.0007 3.9333 14.0011 3.92716C14.0016 3.92103 14.0021 3.91491 14.0028 3.9088C14.0035 3.90269 14.0043 3.89658 14.0052 3.89051C14.0061 3.8844 14.0071 3.87833 14.0082 3.87231C14.0093 3.86625 14.0105 3.86023 14.0118 3.85421C14.0132 3.84823 14.0146 3.84223 14.0162 3.83628C14.0177 3.83033 14.0194 3.8244 14.0212 3.81852C14.0229 3.81261 14.0248 3.80673 14.0268 3.80092C14.0288 3.79508 14.0309 3.78929 14.0331 3.78349C14.0352 3.77775 14.0375 3.77205 14.0399 3.76637C14.0423 3.76067 14.0448 3.75504 14.0475 3.74946C14.0501 3.74385 14.0528 3.73831 14.0556 3.73279C14.0584 3.72732 14.0613 3.72187 14.0643 3.71647C14.0673 3.71107 14.0704 3.70571 14.0737 3.70042C14.0768 3.69513 14.0801 3.68992 14.0835 3.68474C14.0869 3.67955 14.0904 3.67444 14.094 3.6694C14.0976 3.66435 14.1013 3.65936 14.105 3.65443C14.1088 3.64949 14.1126 3.64464 14.1166 3.63985C14.1205 3.63505 14.1245 3.63033 14.1287 3.62568C14.1328 3.62104 14.137 3.61646 14.1412 3.61192C14.1455 3.60744 14.1499 3.603 14.1543 3.59865C14.1588 3.5943 14.1633 3.59002 14.1679 3.58583C14.1725 3.58162 14.1772 3.57752 14.1819 3.57349C14.1866 3.56944 14.1915 3.5655 14.1964 3.56163C14.2012 3.55776 14.2062 3.55399 14.2112 3.5503C14.2162 3.54659 14.2214 3.543 14.2265 3.53945C14.2317 3.53595 14.2369 3.53254 14.2422 3.5292C14.2475 3.52585 14.2528 3.52263 14.2582 3.51947C14.2636 3.51631 14.2691 3.51326 14.2746 3.51029C14.2801 3.50733 14.2857 3.50447 14.2913 3.5017C14.2969 3.49896 14.3026 3.49628 14.3083 3.49371L15.0253 3.18216C15.0568 3.16834 15.0882 3.15414 15.1194 3.13959C15.1505 3.12505 15.1815 3.11015 15.2123 3.0949C15.2431 3.07963 15.2737 3.064 15.3042 3.04802C15.3346 3.03204 15.3648 3.01572 15.3949 2.99903C15.4249 2.98239 15.4547 2.96536 15.4843 2.94801C15.5139 2.93063 15.5433 2.91292 15.5725 2.89488C15.6017 2.87684 15.6307 2.85844 15.6594 2.83973C15.6881 2.82099 15.7167 2.80194 15.7449 2.78255C15.7732 2.76321 15.8012 2.7435 15.829 2.72345C15.8568 2.70342 15.8844 2.68306 15.9117 2.66242C15.939 2.64175 15.966 2.62075 15.9928 2.59947C16.0196 2.57815 16.0461 2.55657 16.0724 2.53464C16.0987 2.51273 16.1247 2.49053 16.1504 2.468C16.1761 2.4455 16.2016 2.4227 16.2268 2.3996C16.2519 2.37648 16.2768 2.35309 16.3014 2.32942C16.326 2.30572 16.3503 2.28178 16.3744 2.25753C16.3984 2.23328 16.4221 2.20876 16.4456 2.18398C16.469 2.15918 16.4921 2.13411 16.5149 2.10878C16.5377 2.08345 16.5602 2.05785 16.5824 2.032C16.6046 2.00615 16.6265 1.98005 16.6481 1.95369C16.6696 1.92734 16.6909 1.90073 16.7118 1.87387C16.7327 1.84702 16.7533 1.81994 16.7735 1.79261C16.7938 1.76527 16.8137 1.73771 16.8333 1.70992C16.8529 1.68213 16.8721 1.65412 16.891 1.62589C16.9099 1.59766 16.9285 1.5692 16.9467 1.54053C16.9649 1.51187 16.9828 1.48299 17.0003 1.45391C17.0178 1.42483 17.035 1.39556 17.0518 1.36607C17.0686 1.33659 17.085 1.30692 17.1011 1.27706C17.1172 1.2472 17.1329 1.21716 17.1483 1.18694C17.1636 1.15671 17.1786 1.12632 17.1932 1.09574C17.2078 1.06517 17.222 1.03443 17.2359 1.00353C17.2498 0.972633 17.2633 0.941574 17.2764 0.910359L17.5294 0.313599C17.5317 0.307865 17.5341 0.302174 17.5366 0.296527C17.5391 0.29088 17.5418 0.28528 17.5445 0.279729C17.5472 0.274178 17.5501 0.26868 17.553 0.263234C17.556 0.257788 17.559 0.252397 17.5622 0.247061C17.5654 0.241725 17.5686 0.236449 17.572 0.231232C17.5753 0.226016 17.5788 0.220862 17.5823 0.215771C17.5859 0.210682 17.5895 0.205658 17.5933 0.200702C17.597 0.195745 17.6009 0.190858 17.6048 0.18604C17.6087 0.181223 17.6127 0.17648 17.6169 0.171811C17.621 0.167141 17.6252 0.162548 17.6295 0.158032C17.6338 0.153517 17.6382 0.14908 17.6426 0.144723C17.6471 0.140368 17.6516 0.136095 17.6562 0.131904C17.6609 0.127714 17.6656 0.123609 17.6704 0.119591C17.6751 0.115573 17.68 0.111643 17.6849 0.107802C17.6899 0.103961 17.6948 0.100211 17.6999 0.0965509C17.705 0.0928928 17.7102 0.0893287 17.7154 0.0858584C17.7206 0.082388 17.7259 0.0790139 17.7312 0.0757358C17.7365 0.0724594 17.7419 0.0692805 17.7474 0.0661993C17.7529 0.0631197 17.7584 0.06014 17.764 0.0572603C17.7695 0.0543821 17.7752 0.0516061 17.7809 0.0489324C17.7865 0.0462603 17.7923 0.0436926 17.7981 0.0412295C17.8038 0.038765 17.8097 0.0364072 17.8156 0.0341561C17.8214 0.0319066 17.8273 0.0297642 17.8333 0.0277282C17.8392 0.0256941 17.8452 0.0237687 17.8512 0.0219527C17.8573 0.0201368 17.8633 0.0184313 17.8694 0.0168365C17.8755 0.0152433 17.8816 0.0137608 17.8878 0.0123888C17.894 0.0110184 17.9001 0.00976091 17.9063 0.00861628C17.9125 0.00747025 17.9188 0.00643783 17.925 0.00551909C17.9312 0.00460195 17.9375 0.00379849 17.9437 0.00310871C17.95 0.00241885 17.9563 0.00184357 17.9626 0.00138268C17.9689 0.000921784 17.9752 0.00057616 17.9815 0.000345713C17.9878 0.000116751 17.9941 1.57182e-06 18.0004 0C18.0067 1.57182e-06 18.013 0.000116751 18.0193 0.000345713C18.0256 0.00057616 18.0319 0.000921784 18.0382 0.00138268C18.0445 0.00184357 18.0508 0.00241885 18.057 0.00310871C18.0633 0.00379849 18.0696 0.00460195 18.0758 0.00551909C18.082 0.00643783 18.0883 0.00746947 18.0945 0.00861401C18.1007 0.00976014 18.1068 0.0110184 18.113 0.0123888C18.1191 0.0137608 18.1253 0.0152433 18.1314 0.0168365C18.1374 0.0184313 18.1435 0.0201368 18.1495 0.0219527C18.1555 0.0237687 18.1615 0.0256941 18.1675 0.0277282C18.1735 0.0297642 18.1794 0.0319066 18.1852 0.0341561C18.1911 0.0364072 18.1969 0.038765 18.2027 0.0412295C18.2085 0.0436926 18.2142 0.0462603 18.2199 0.0489324C18.2256 0.0516061 18.2312 0.0543821 18.2368 0.0572603C18.2424 0.06014 18.2479 0.0631197 18.2534 0.0661993C18.2588 0.0692791 18.2642 0.0724578 18.2696 0.0757358C18.2749 0.0790139 18.2802 0.082388 18.2854 0.0858584C18.2906 0.0893287 18.2958 0.0928928 18.3008 0.0965509C18.3059 0.100211 18.3109 0.10396 18.3159 0.1078C18.3208 0.111642 18.3257 0.115573 18.3304 0.119591C18.3352 0.123609 18.3399 0.127714 18.3445 0.131904C18.3492 0.136095 18.3537 0.140368 18.3582 0.144723C18.3626 0.14908 18.367 0.153517 18.3713 0.158032C18.3756 0.162548 18.3798 0.167141 18.3839 0.171811C18.388 0.17648 18.392 0.181223 18.396 0.18604C18.3999 0.190858 18.4038 0.195745 18.4075 0.200702C18.4113 0.205658 18.4149 0.210682 18.4184 0.215771C18.422 0.220862 18.4255 0.226016 18.4288 0.231232C18.4322 0.236449 18.4354 0.241723 18.4386 0.247059C18.4417 0.252395 18.4448 0.257788 18.4477 0.263234C18.4507 0.26868 18.4535 0.274178 18.4563 0.279729C18.459 0.28528 18.4616 0.29088 18.4642 0.296527C18.4667 0.302174 18.4691 0.307865 18.4714 0.313599L18.7244 0.909384C18.7375 0.940603 18.751 0.971667 18.7648 1.00257C18.7787 1.03348 18.7929 1.06423 18.8075 1.0948C18.8221 1.12538 18.8371 1.15579 18.8524 1.18602C18.8677 1.21625 18.8834 1.2463 18.8995 1.27616C18.9156 1.30604 18.932 1.33572 18.9488 1.3652C18.9656 1.39469 18.9827 1.42397 19.0002 1.45306C19.0177 1.48215 19.0356 1.51103 19.0538 1.5397C19.072 1.56838 19.0905 1.59684 19.1094 1.62509C19.1283 1.65333 19.1475 1.68135 19.1671 1.70914C19.1867 1.73695 19.2066 1.76452 19.2268 1.79185C19.2471 1.81918 19.2677 1.84629 19.2886 1.87316C19.3095 1.90002 19.3307 1.92663 19.3522 1.953C19.3738 1.97936 19.3957 2.00547 19.4178 2.03134C19.44 2.05721 19.4625 2.0828 19.4853 2.10814C19.5081 2.13349 19.5312 2.15856 19.5547 2.18336C19.5781 2.20816 19.6018 2.23269 19.6258 2.25696C19.6498 2.2812 19.6741 2.30518 19.6987 2.32887C19.7233 2.35256 19.7482 2.37596 19.7734 2.39908C19.7985 2.42217 19.824 2.445 19.8497 2.46754C19.8754 2.49005 19.9014 2.51227 19.9276 2.5342C19.9539 2.55611 19.9804 2.57774 20.0072 2.59903C20.034 2.62034 20.061 2.64136 20.0883 2.66203C20.1156 2.68272 20.1432 2.70307 20.171 2.7231C20.1987 2.74315 20.2268 2.76286 20.255 2.78225C20.2833 2.80166 20.3118 2.82073 20.3405 2.83944C20.3693 2.85818 20.3982 2.87659 20.4274 2.89465C20.4566 2.91269 20.486 2.93041 20.5156 2.94778C20.5452 2.96518 20.575 2.98221 20.605 2.99892C20.635 3.01558 20.6653 3.03193 20.6957 3.04793C20.7261 3.06391 20.7567 3.07952 20.7875 3.09479C20.8183 3.11008 20.8493 3.12503 20.8804 3.13959C20.9116 3.15414 20.943 3.16834 20.9745 3.18216L21.6925 3.4947C21.6981 3.49726 21.7038 3.49994 21.7094 3.50273C21.715 3.50548 21.7205 3.50836 21.726 3.51132C21.7315 3.51429 21.7369 3.51734 21.7424 3.5205C21.7477 3.52366 21.753 3.52691 21.7584 3.53023C21.7637 3.53357 21.7689 3.537 21.7741 3.54053C21.7792 3.54403 21.7843 3.54765 21.7893 3.55133C21.7943 3.55504 21.7992 3.55882 21.8041 3.56269C21.8089 3.56655 21.8137 3.57051 21.8184 3.57457C21.8232 3.57857 21.8279 3.58269 21.8324 3.5869C21.837 3.59109 21.8415 3.59535 21.846 3.59972C21.8504 3.60407 21.8547 3.60849 21.8589 3.613C21.8633 3.61749 21.8675 3.62207 21.8716 3.62671C21.8756 3.63136 21.8796 3.63608 21.8835 3.64088C21.8874 3.64567 21.8913 3.65052 21.895 3.65544C21.8988 3.66036 21.9024 3.66535 21.906 3.67039C21.9096 3.67543 21.9131 3.68055 21.9166 3.68573C21.9199 3.6909 21.9231 3.69612 21.9264 3.70141C21.9295 3.70667 21.9326 3.71201 21.9356 3.71741C21.9385 3.72279 21.9414 3.72824 21.9442 3.73373C21.947 3.7392 21.9498 3.74476 21.9524 3.75035C21.9551 3.75593 21.9576 3.76154 21.9599 3.76722C21.9623 3.7729 21.9645 3.7786 21.9667 3.78434C21.9689 3.79009 21.971 3.79588 21.9731 3.80172C21.9749 3.80753 21.9768 3.81337 21.9787 3.81927C21.9804 3.82516 21.982 3.83106 21.9836 3.83704C21.9851 3.84297 21.9866 3.84892 21.9878 3.85494C21.9892 3.86091 21.9905 3.86693 21.9916 3.87295C21.9926 3.87902 21.9937 3.88506 21.9946 3.89115C21.9954 3.89722 21.9962 3.90329 21.997 3.9094C21.9976 3.91549 21.9981 3.9216 21.9986 3.92771C21.9991 3.93385 21.9994 3.93996 21.9995 3.94607C21.9998 3.95223 22 3.95834 22 3.9645C22 3.97063 21.9998 3.97674 21.9995 3.9829C21.9994 3.98901 21.9991 3.99513 21.9986 4.00126C21.9981 4.00737 21.9976 4.01348 21.997 4.01957C21.9962 4.02568 21.9954 4.03175 21.9946 4.03782C21.9937 4.04391 21.9926 4.04997 21.9916 4.05602C21.9905 4.06204 21.9892 4.06806 21.9878 4.07403C21.9866 4.08005 21.9851 4.08603 21.9836 4.09198C21.982 4.09791 21.9804 4.10381 21.9787 4.1097C21.9768 4.1156 21.9749 4.12144 21.9731 4.12728C21.971 4.13309 21.9689 4.13888 21.9667 4.14463C21.9645 4.15037 21.9623 4.15607 21.9599 4.16175C21.9576 4.16743 21.9551 4.17306 21.9524 4.17862C21.9498 4.18421 21.947 4.18977 21.9442 4.19526C21.9414 4.20073 21.9385 4.20618 21.9356 4.21158C21.9326 4.21696 21.9295 4.2223 21.9264 4.22756C21.9231 4.23287 21.9199 4.23809 21.9166 4.24324C21.9131 4.24844 21.9096 4.25354 21.906 4.2586C21.9024 4.26364 21.8988 4.26861 21.895 4.27355C21.8913 4.27845 21.8874 4.2833 21.8835 4.28811C21.8796 4.29289 21.8756 4.29761 21.8716 4.30226C21.8675 4.3069 21.8633 4.31148 21.8589 4.31597C21.8547 4.32048 21.8504 4.3249 21.846 4.32925C21.8415 4.3336 21.837 4.33788 21.8324 4.34207C21.8279 4.34628 21.8232 4.3504 21.8184 4.3544C21.8137 4.35846 21.8089 4.36242 21.8041 4.36628C21.7992 4.37015 21.7943 4.37393 21.7893 4.37764C21.7843 4.38132 21.7792 4.38494 21.7741 4.38844C21.7689 4.39197 21.7637 4.3954 21.7584 4.39874C21.753 4.40206 21.7477 4.40531 21.7424 4.40847C21.7369 4.41163 21.7315 4.41468 21.726 4.41765C21.7205 4.42061 21.715 4.42349 21.7094 4.42624C21.7038 4.42903 21.6981 4.43171 21.6925 4.43427L20.9325 4.76441C20.9017 4.77787 20.8711 4.7917 20.8407 4.80587C20.8103 4.82004 20.7801 4.83455 20.75 4.84938C20.7199 4.86424 20.6901 4.87944 20.6603 4.89496C20.6306 4.9105 20.6011 4.92634 20.5718 4.94253C20.5424 4.95876 20.5133 4.97526 20.4844 4.99213C20.4554 5.00898 20.4267 5.02617 20.3982 5.04366C20.3696 5.06117 20.3413 5.079 20.3132 5.09713C20.2851 5.11529 20.2572 5.13374 20.2295 5.15253C20.2019 5.1713 20.1744 5.19039 20.1472 5.20981C20.12 5.22919 20.093 5.24888 20.0663 5.26889C20.0395 5.28892 20.013 5.30922 19.9867 5.3298C19.9605 5.35043 19.9344 5.37133 19.9087 5.39252C19.8829 5.41374 19.8574 5.43522 19.8321 5.45699C19.8068 5.47875 19.7819 5.5008 19.7571 5.52316C19.7324 5.54548 19.7079 5.56812 19.6837 5.59101C19.6595 5.61391 19.6356 5.63707 19.6119 5.66051C19.5882 5.68393 19.5649 5.70764 19.5418 5.73159C19.5187 5.75556 19.4959 5.7798 19.4734 5.80427C19.4508 5.82876 19.4286 5.85349 19.4067 5.87846C19.3848 5.90346 19.3631 5.92868 19.3418 5.95416C19.3205 5.97962 19.2995 6.00532 19.2787 6.03126C19.258 6.05724 19.2376 6.08341 19.2175 6.10982C19.1974 6.13624 19.1776 6.16286 19.1582 6.18971C19.1387 6.21659 19.1195 6.24367 19.1007 6.27095C19.0819 6.29822 19.0634 6.32573 19.0452 6.35345C19.027 6.38115 19.0092 6.40908 18.9917 6.43717C18.9741 6.4653 18.957 6.49359 18.9401 6.52212C18.9233 6.55062 18.9068 6.5793 18.8906 6.60819C18.8745 6.63705 18.8586 6.6661 18.8432 6.69534C18.8277 6.72457 18.8126 6.75396 18.7978 6.78356C18.783 6.81313 18.7686 6.84287 18.7545 6.87277C18.7405 6.90268 18.7268 6.93272 18.7134 6.96293ZM8.00019 1.95445L12.0003 1.95445L12.0003 3.90782L8.00019 3.90782C7.90198 3.90782 7.80382 3.9102 7.70576 3.91489C7.60767 3.91961 7.50977 3.92666 7.41206 3.93604C7.31432 3.94545 7.21691 3.95719 7.11979 3.97127C7.02263 3.98533 6.92591 4.00172 6.82962 4.02044C6.73329 4.03914 6.63753 4.06016 6.54227 4.08346C6.44702 4.10674 6.3524 4.13234 6.25844 4.16017C6.16445 4.18801 6.07124 4.21809 5.9788 4.25041C5.88634 4.28271 5.79474 4.31721 5.70404 4.35392C5.61331 4.39062 5.52356 4.42946 5.4348 4.47049C5.34602 4.51148 5.25832 4.55459 5.17174 4.5998C5.08513 4.64501 4.99972 4.69226 4.91549 4.74159C4.83125 4.79087 4.74833 4.84217 4.66669 4.89544C4.58504 4.94873 4.50476 5.00394 4.42591 5.06108C4.34702 5.11822 4.26963 5.17721 4.19374 5.23803C4.11782 5.29888 4.0435 5.36148 3.97075 5.4259C3.89797 5.49031 3.82686 5.55643 3.75744 5.62423C3.68799 5.69206 3.6203 5.76149 3.55437 5.83256C3.48842 5.90362 3.42432 5.97623 3.36202 6.05035C3.29972 6.1245 3.23932 6.20008 3.18082 6.27711C3.12232 6.35414 3.06581 6.43252 3.01124 6.51227C2.95668 6.59203 2.90418 6.67302 2.85369 6.75526C2.80321 6.83754 2.75481 6.92095 2.70854 7.00556C2.66223 7.09012 2.61809 7.17576 2.57612 7.26244C2.53412 7.34916 2.49434 7.43681 2.45677 7.5254C2.4192 7.61401 2.38388 7.70347 2.35078 7.79377C2.3177 7.88408 2.28691 7.97512 2.25841 8.06687C2.22991 8.15866 2.20373 8.25105 2.17987 8.3441C2.15601 8.43713 2.1345 8.53069 2.11534 8.62475C2.09619 8.71881 2.0794 8.81326 2.06497 8.90812C2.05057 9.00301 2.03855 9.09817 2.02893 9.1936C2.0193 9.28906 2.01208 9.38467 2.00727 9.48045C2.00246 9.57625 2.00005 9.6721 2.00005 9.76801C2.00005 13.2939 4.4621 15.595 10.0002 18.0504L10.0002 15.6282L12.0003 15.6282C12.0985 15.6282 12.1966 15.6258 12.2947 15.6211C12.3927 15.6164 12.4907 15.6094 12.5884 15.6C12.6861 15.5906 12.7835 15.5788 12.8807 15.5647C12.9778 15.5507 13.0745 15.5343 13.1708 15.5156C13.2671 15.4969 13.3629 15.4759 13.4582 15.4526C13.5534 15.4293 13.648 15.4037 13.742 15.3758C13.836 15.348 13.9292 15.3179 14.0216 15.2856C14.1141 15.2533 14.2057 15.2188 14.2964 15.1821C14.3871 15.1454 14.4769 15.1065 14.5656 15.0655C14.6544 15.0245 14.7421 14.9814 14.8287 14.9362C14.9153 14.891 15.0007 14.8437 15.085 14.7945C15.1692 14.7451 15.2521 14.6938 15.3337 14.6406C15.4154 14.5873 15.4957 14.5321 15.5745 14.4749C15.6534 14.4178 15.7308 14.3588 15.8067 14.298C15.8826 14.2371 15.9569 14.1745 16.0297 14.1101C16.1024 14.0457 16.1736 13.9796 16.243 13.9118C16.3124 13.844 16.3801 13.7745 16.4461 13.7035C16.512 13.6324 16.5761 13.5598 16.6384 13.4856C16.7007 13.4115 16.7611 13.3359 16.8196 13.2589C16.8781 13.1819 16.9346 13.1035 16.9892 13.0237C17.0437 12.944 17.0963 12.863 17.1467 12.7807C17.1972 12.6985 17.2456 12.615 17.2919 12.5305C17.3382 12.4459 17.3823 12.3603 17.4243 12.2736C17.4663 12.1868 17.5061 12.0992 17.5436 12.0106C17.5812 11.922 17.6166 11.8325 17.6497 11.7422C17.6827 11.6519 17.7135 11.5609 17.742 11.4691C17.7705 11.3773 17.7967 11.2849 17.8206 11.1919C17.8444 11.0989 17.8659 11.0053 17.8851 10.9113C17.9042 10.8172 17.921 10.7227 17.9354 10.6279C17.9499 10.533 17.9619 10.4379 17.9715 10.3424C17.9811 10.247 17.9883 10.1513 17.9932 10.0555C17.998 9.95977 18.0004 9.86392 18.0004 9.76801L20.0004 9.76801C20.0004 9.89588 19.9972 10.0237 19.9908 10.1514C19.9844 10.2791 19.9747 10.4066 19.9619 10.5339C19.9491 10.6611 19.9331 10.788 19.9138 10.9145C19.8946 11.041 19.8723 11.1669 19.8467 11.2924C19.8212 11.4178 19.7925 11.5425 19.7607 11.6666C19.7288 11.7906 19.6939 11.9138 19.656 12.0362C19.6179 12.1585 19.5769 12.2799 19.5328 12.4003C19.4887 12.5207 19.4416 12.64 19.3915 12.7581C19.3413 12.8763 19.2883 12.9931 19.2323 13.1087C19.1763 13.2243 19.1175 13.3385 19.0558 13.4513C18.9941 13.5641 18.9296 13.6753 18.8622 13.785C18.7949 13.8947 18.7249 14.0027 18.6522 14.109C18.5794 14.2153 18.504 14.3198 18.4261 14.4225C18.3481 14.5253 18.2675 14.626 18.1845 14.7249C18.1014 14.8237 18.0159 14.9205 17.928 15.0153C17.8401 15.11 17.7498 15.2026 17.6573 15.2931C17.5646 15.3835 17.4698 15.4716 17.3729 15.5575C17.2758 15.6434 17.1767 15.7268 17.0755 15.808C16.9743 15.8891 16.8711 15.9677 16.766 16.0439C16.6608 16.1201 16.5538 16.1937 16.4449 16.2648C16.3361 16.3358 16.2255 16.4042 16.1132 16.4699C16.0009 16.5357 15.887 16.5987 15.7715 16.659C15.656 16.7192 15.5391 16.7767 15.4208 16.8314C15.3024 16.8861 15.1827 16.9379 15.0618 16.9868C14.9408 17.0357 14.8187 17.0817 14.6954 17.1248C14.5722 17.1679 14.4479 17.208 14.3226 17.2451C14.1973 17.2822 14.0711 17.3163 13.9442 17.3474C13.8171 17.3785 13.6894 17.4065 13.561 17.4314C13.4326 17.4564 13.3036 17.4782 13.1741 17.497C13.0446 17.5158 12.9147 17.5314 12.7844 17.544C12.6541 17.5565 12.5236 17.5659 12.3928 17.5722C12.262 17.5784 12.1312 17.5816 12.0003 17.5816L12.0003 21C7.00016 19.0466 0 16.1165 0 9.76801C0 9.64014 0.00321192 9.51234 0.00963541 9.3846C0.0160605 9.25689 0.0256897 9.12941 0.0385227 9.00216C0.0513559 8.87488 0.0673779 8.748 0.0865894 8.6215C0.105801 8.49503 0.128178 8.36908 0.15372 8.24366C0.179263 8.11823 0.207941 7.9935 0.239754 7.86948C0.271567 7.74543 0.306478 7.6222 0.344485 7.49983C0.382485 7.37747 0.423541 7.2561 0.467651 7.1357C0.511762 7.01529 0.558872 6.89602 0.608983 6.7779C0.659077 6.65974 0.712117 6.54286 0.768103 6.42726C0.82409 6.31168 0.882933 6.1975 0.944638 6.08473C1.00636 5.97195 1.07088 5.86072 1.13819 5.75102C1.2055 5.64135 1.27553 5.53335 1.34826 5.42704C1.42102 5.32071 1.49639 5.21619 1.57437 5.11348C1.65237 5.01077 1.7329 4.91 1.81595 4.81115C1.89901 4.71229 1.9845 4.61548 2.07243 4.52075C2.16035 4.42598 2.2506 4.33339 2.34318 4.24299C2.43577 4.15257 2.53055 4.06442 2.62759 3.97853C2.7246 3.89266 2.82372 3.80916 2.92492 3.72805C3.02613 3.6469 3.1293 3.56827 3.23449 3.49209C3.33963 3.41591 3.44665 3.34231 3.55552 3.27126C3.66437 3.20022 3.77495 3.13185 3.88726 3.06608C3.99955 3.00036 4.11344 2.93734 4.22892 2.87707C4.34437 2.81677 4.46131 2.75932 4.57967 2.70465C4.69803 2.64996 4.81768 2.59814 4.93864 2.5492C5.05958 2.50028 5.18172 2.45429 5.305 2.41121C5.42826 2.36813 5.55256 2.32802 5.67786 2.29089C5.80313 2.25377 5.92928 2.21967 6.05629 2.1886C6.18327 2.15753 6.31099 2.12953 6.43943 2.10459C6.56782 2.07964 6.6968 2.05778 6.82632 2.03901C6.95581 2.02025 7.08571 2.00461 7.21602 1.99208C7.34631 1.97954 7.47684 1.97013 7.60762 1.96386C7.73838 1.95758 7.86924 1.95445 8.00019 1.95445Z"   fill="#5686E1" >
    </path>
</svg>
