<?xml version="1.0" standalone="no"?><!DOCTYPE svg PUBLIC "-//W3C//DTD SVG 1.1//EN" "http://www.w3.org/Graphics/SVG/1.1/DTD/svg11.dtd"><svg t="1742301346858" class="icon" viewBox="0 0 1024 1024" version="1.1" xmlns="http://www.w3.org/2000/svg" p-id="2382" xmlns:xlink="http://www.w3.org/1999/xlink" width="200" height="200"><path d="M752.2304 956.416c-9.728 9.728-22.7328 15.1552-36.5568 15.1552-14.1312 0-27.3408-5.632-37.1712-15.872l-0.7168-0.7168-408.8832-408.576v-0.4096c-5.7344-6.656-12.5952-17.92-12.5952-33.792 0-13.824 5.3248-26.7264 15.1552-36.4544 0.7168-0.7168 1.4336-1.4336 2.2528-2.1504l2.1504-2.048L675.0208 72.4992l2.048-2.1504c0.7168-0.7168 1.4336-1.536 2.1504-2.2528 9.728-9.728 22.7328-15.1552 36.4544-15.1552 28.4672 0 51.6096 23.1424 51.6096 51.6096 0 13.824-5.3248 26.7264-15.0528 36.4544-1.1264 1.1264-2.4576 2.3552-3.6864 3.3792l-3.6864 3.2768-364.8512 365.2608 36.2496 36.2496 326.5536 325.9392 4.608 4.096c12.5952 9.9328 19.8656 24.7808 19.8656 40.7552 0 13.7216-5.3248 26.7264-15.0528 36.4544z" p-id="2383"></path></svg>