<?xml version="1.0" standalone="no"?><!DOCTYPE svg PUBLIC "-//W3C//DTD SVG 1.1//EN" "http://www.w3.org/Graphics/SVG/1.1/DTD/svg11.dtd"><svg t="1741436317832" class="icon" viewBox="0 0 1024 1024" version="1.1" xmlns="http://www.w3.org/2000/svg" p-id="2030" xmlns:xlink="http://www.w3.org/1999/xlink" width="200" height="200"><path d="M883.413333 702.506667h-42.666666V192a19.84 19.84 0 0 0-19.84-19.84h-448a19.84 19.84 0 0 0-19.84 19.84v154.24h-42.666667V192a62.506667 62.506667 0 0 1 62.506667-62.506667h448A62.72 62.72 0 0 1 883.413333 192zM502.826667 765.013333h-130.133334a62.506667 62.506667 0 0 1-62.506666-62.506666v-161.706667h42.666666v161.706667a19.626667 19.626667 0 0 0 19.84 19.84h130.133334z" fill="#8a8a8a" p-id="2031"></path><path d="M384 453.333333l-125.013333 71.466667a6.826667 6.826667 0 0 1-10.24-5.973333v-142.933334a6.826667 6.826667 0 0 1 10.24-5.973333L384 441.6a6.826667 6.826667 0 0 1 0 11.733333z" fill="#8a8a8a" p-id="2032"></path><path d="M110.72 426.026667h186.24v42.666666H110.72z" fill="#8a8a8a" p-id="2033"></path><path d="M544 894.293333a61.013333 61.013333 0 0 1-34.986667-10.88A62.08 62.08 0 0 1 481.493333 832V327.68a61.866667 61.866667 0 0 1 39.253334-57.813333l277.333333-111.146667a62.72 62.72 0 0 1 85.333333 58.026667v504.106666a62.293333 62.293333 0 0 1-39.253333 57.813334l-277.333333 111.146666a62.293333 62.293333 0 0 1-22.826667 4.48z m277.333333-697.386666a19.413333 19.413333 0 0 0-7.466666 1.493333l-277.333334 110.933333a19.626667 19.626667 0 0 0-12.373333 18.346667V832a19.84 19.84 0 0 0 8.746667 16.426667 19.413333 19.413333 0 0 0 18.346666 1.92l277.333334-110.933334a19.84 19.84 0 0 0 12.586666-18.346666V216.746667a19.84 19.84 0 0 0-9.173333-16.426667 21.333333 21.333333 0 0 0-11.093333-3.413333z" fill="#8a8a8a" p-id="2034"></path></svg>