<?xml version="1.0" standalone="no"?><!DOCTYPE svg PUBLIC "-//W3C//DTD SVG 1.1//EN" "http://www.w3.org/Graphics/SVG/1.1/DTD/svg11.dtd"><svg t="1741189137510" class="icon" viewBox="0 0 1024 1024" version="1.1" xmlns="http://www.w3.org/2000/svg" p-id="1259" xmlns:xlink="http://www.w3.org/1999/xlink" width="200" height="200"><path d="M927.921781 92.898807 85.503373 92.898807c-11.355629 0-20.646226 9.290597-20.646226 20.646226L64.857147 116.997668c0 11.355629 9.290597 20.646226 20.646226 20.646226l842.418408 0c11.355629 0 20.646226-9.290597 20.646226-20.646226l0-3.452635C948.568007 102.190427 939.276387 92.898807 927.921781 92.898807z" fill="#5686E1" p-id="1260"></path><path d="M223.190245 685.767626c11.355629 0 20.646226-9.290597 20.646226-20.646226l0-10.909467c0-11.355629-9.290597-20.646226-20.646226-20.646226L111.604844 633.565706c-11.355629 0-20.646226 9.290597-20.646226 20.646226l0 10.909467c0 11.355629 9.290597 20.646226 20.646226 20.646226L223.190245 685.767626z" fill="#5686E1" p-id="1261"></path><path d="M408.31043 160.015414 109.664655 160.015414c-10.332323 0-18.706037 8.374738-18.706037 18.706037l0 435.42702 148.658761 0c6.671956-19.004843 17.050328-37.58092 32.18605-55.158251 98.393961-114.26544 140.05071-323.095629 150.266375-382.699122C423.531086 167.763888 416.962483 160.015414 408.31043 160.015414z" fill="#5686E1" p-id="1262"></path><path d="M90.957595 705.183837l0 213.629495c0 39.151695 27.964912 7.456832 27.964912 7.456832s27.965935-33.558303 37.288255-2.179642c9.322319 31.378661 42.880623 0 42.880623 0s22.372543-53.750181 67.116607-14.598486 49.710169-12.839423 49.710169-12.839423-75.581396-90.982154-85.120656-191.468776L90.957595 705.183837z" fill="#5686E1" p-id="1263"></path><path d="M898.78109 685.767626c11.355629 0 20.646226-9.290597 20.646226-20.646226l0-10.909467c0-11.355629-9.290597-20.646226-20.646226-20.646226L787.195689 633.565706c-11.355629 0-20.646226 9.290597-20.646226 20.646226l0 10.909467c0 11.355629 9.290597 20.646226 20.646226 20.646226L898.78109 685.767626z" fill="#5686E1" p-id="1264"></path><path d="M900.722302 160.015414 602.075505 160.015414c-8.652054 0-15.220656 7.748475-13.759375 16.275685 10.215666 59.603493 51.873438 268.434705 150.266375 382.699122 15.136745 17.577331 25.514093 36.153408 32.18605 55.158251l148.658761 0 0-435.42702C919.42834 168.391175 911.053602 160.015414 900.722302 160.015414z" fill="#5686E1" p-id="1265"></path><path d="M694.466752 896.652614c0 0 4.966105 51.991118 49.710169 12.839423s67.116607 14.598486 67.116607 14.598486 33.558303 31.378661 42.880623 0c9.322319-31.378661 37.288255 2.179642 37.288255 2.179642s27.964912 31.694863 27.964912-7.456832L919.427316 705.183837 779.587408 705.183837C770.048147 805.670459 694.466752 896.652614 694.466752 896.652614z" fill="#5686E1" p-id="1266"></path></svg>