<?xml version="1.0" standalone="no"?><!DOCTYPE svg PUBLIC "-//W3C//DTD SVG 1.1//EN" "http://www.w3.org/Graphics/SVG/1.1/DTD/svg11.dtd"><svg t="1742212542073" class="icon" viewBox="0 0 1024 1024" version="1.1" xmlns="http://www.w3.org/2000/svg" p-id="2118" xmlns:xlink="http://www.w3.org/1999/xlink" width="200" height="200"><path d="M508.441304 0.000241a491.688543 491.688543 0 0 1 492.074048 492.074049 36.141168 36.141168 0 0 1-36.141168 36.141168 36.141168 36.141168 0 0 1-36.141167-36.141168 419.791713 419.791713 0 1 0-419.791713 419.791713 36.141168 36.141168 0 0 1 36.141167 36.141168 36.141168 36.141168 0 0 1-36.141167 36.141168 491.929484 491.929484 0 0 1-347.943072-840.01712 490.652496 490.652496 0 0 1 347.943072-144.130978z" fill="#5686E1" p-id="2119"></path><path d="M691.195143 628.446964h-247.880224a36.141168 36.141168 0 0 1-36.141168-36.141168v-302.140165a36.141168 36.141168 0 0 1 36.141168-36.141167 36.141168 36.141168 0 0 1 36.141168 36.141167v266.047185h211.739056a36.141168 36.141168 0 0 1 36.141168 36.141168 36.141168 36.141168 0 0 1-36.141168 36.09298z" fill="#5686E1" p-id="2120"></path><path d="M660.426962 817.754401m32.575239 0l282.238428 0q32.575239 0 32.575239 32.57524l0-0.024094q0 32.575239-32.575239 32.575239l-282.238428 0q-32.575239 0-32.575239-32.575239l0 0.024094q0-32.575239 32.575239-32.57524Z" fill="#5686E1" p-id="2121"></path><path d="M867.154443 676.635188m0 33.081215l0 281.178287q0 33.081216-33.081216 33.081216l0 0q-33.081216 0-33.081216-33.081216l0-281.178287q0-33.081216 33.081216-33.081215l0 0q33.081216 0 33.081216 33.081215Z" fill="#5686E1" p-id="2122"></path></svg>