<?xml version="1.0" standalone="no"?><!DOCTYPE svg PUBLIC "-//W3C//DTD SVG 1.1//EN" "http://www.w3.org/Graphics/SVG/1.1/DTD/svg11.dtd"><svg t="1741512820130" class="icon" viewBox="0 0 1024 1024" version="1.1" xmlns="http://www.w3.org/2000/svg" p-id="4987" xmlns:xlink="http://www.w3.org/1999/xlink" width="200" height="200"><path d="M512 254.0032a257.9968 257.9968 0 1 0 0 515.9936A257.9968 257.9968 0 0 0 512 253.952zM172.6976 512a339.3536 339.3536 0 1 1 678.656 0 339.3536 339.3536 0 0 1-678.656 0zM512 1.9968c22.4768 0 40.6528 18.2272 40.6528 40.6528v42.7008a40.6528 40.6528 0 0 1-81.3056 0V42.6496c0-22.4256 18.176-40.6528 40.6528-40.6528zM141.9264 141.9264a40.6528 40.6528 0 0 1 57.4976 0l42.7008 42.6496a40.6528 40.6528 0 1 1-57.5488 57.4976l-42.6496-42.6496a40.6528 40.6528 0 0 1 0-57.4976zM2.048 512c0-22.4768 18.176-40.6528 40.6016-40.6528h42.7008a40.6528 40.6528 0 0 1 0 81.3056H42.6496A40.6528 40.6528 0 0 1 2.048 512zM242.1248 781.9264c15.872 15.872 15.872 41.6256 0 57.4976l-42.7008 42.6496a40.6528 40.6528 0 1 1-57.4976-57.4976l42.6496-42.6496a40.6528 40.6528 0 0 1 57.5488 0zM512 897.9968c22.4768 0 40.6528 18.2272 40.6528 40.6528v42.7008a40.6528 40.6528 0 1 1-81.3056 0v-42.7008c0-22.4256 18.176-40.6528 40.6528-40.6528zM781.9264 781.9264a40.704 40.704 0 0 1 57.4976 0l42.7008 42.6496a40.6528 40.6528 0 1 1-57.5488 57.4976l-42.6496-42.6496a40.704 40.704 0 0 1 0-57.4976zM898.048 512c0-22.4768 18.176-40.6528 40.6528-40.6528h42.6496a40.6528 40.6528 0 1 1 0 81.3056h-42.7008A40.6528 40.6528 0 0 1 898.048 512zM882.1248 141.9264c15.872 15.872 15.872 41.6256 0 57.4976l-42.7008 42.6496a40.6528 40.6528 0 0 1-57.4976-57.4976l42.6496-42.6496a40.6528 40.6528 0 0 1 57.4976 0z" p-id="4988" fill="#5686E1"></path></svg>