<?xml version="1.0" standalone="no"?><!DOCTYPE svg PUBLIC "-//W3C//DTD SVG 1.1//EN" "http://www.w3.org/Graphics/SVG/1.1/DTD/svg11.dtd"><svg t="1741512787651" class="icon" viewBox="0 0 1024 1024" version="1.1" xmlns="http://www.w3.org/2000/svg" p-id="3956" xmlns:xlink="http://www.w3.org/1999/xlink" width="200" height="200"><path d="M250.07 630.51c-1.73-12.02-2.6-24.33-2.6-36.59 0-108.88 170.29-300.35 264.41-393.73 19.57 19.52 47.26 47.97 77.34 81.49l63.51-56.99c-59.94-66.79-109.56-113.16-111.64-115.1L512 82.48l-29.09 27.11c-3.22 3-79.68 74.5-157.33 167.94C217.13 408.05 162.13 514.5 162.13 593.92c0 16.3 1.17 32.7 3.47 48.73l84.47-12.14zM723.11 455.35c44.15 71.57 53.42 114.85 53.42 138.57 0 143.04-118.67 259.41-264.53 259.41-46.52 0-92.26-12-132.26-34.69l-42.12 74.22c52.81 29.97 113.11 45.81 174.37 45.81 192.92 0 349.87-154.65 349.87-344.75 0-51.26-21.63-111.25-66.13-183.37l-72.62 44.8zM123.428 840.222l716.794-716.795 60.337 60.337L183.764 900.56z" p-id="3957" fill="#333333"></path></svg>