<svg xmlns="http://www.w3.org/2000/svg" xmlns:xlink="http://www.w3.org/1999/xlink" width="23.947021484375" height="23.65234375" viewBox="0 0 23.947021484375 23.65234375" fill="none">
    <path d="M23.3874 9.89563L23.394 9.90178L23.4004 9.90816C23.5999 10.1076 23.7461 10.3237 23.8392 10.5565C23.9459 10.8231 23.9734 11.0868 23.9219 11.3475L23.9219 21.6992C23.9219 22.7779 23.0474 23.6523 21.9688 23.6523L1.95312 23.6523C0.874444 23.6523 0 22.7779 0 21.6992L0 11.293C0 11.036 0.058605 10.7819 0.175815 10.5307C0.28268 10.3017 0.42914 10.0942 0.615197 9.90816L0.621584 9.90178L10.7002 0.526309C10.8736 0.354714 11.0733 0.223523 11.2992 0.132734C11.5194 0.0442447 11.7497 1.06624e-16 11.9902 1.06624e-16C12.491 -4.96705e-09 12.9307 0.173542 13.3093 0.520625L23.3874 9.89563ZM21.6094 11.5107L21.6094 21.293L15.5312 21.293L15.5312 15.9805C15.5312 14.0475 13.9642 12.4805 12.0312 12.4805C10.0983 12.4805 8.53125 14.0475 8.53125 15.9805L8.53125 21.293L2.45312 21.293L2.45312 11.5107L12.0312 2.60086L21.6094 11.5107Z" fill-rule="evenodd"  fill="#5686E1" >
    </path>
</svg>
