<svg t="1744372946543" class="icon" viewBox="0 0 1024 1024" version="1.1" xmlns="http://www.w3.org/2000/svg" p-id="6220" width="200" height="200"><path d="M667.826087 0c196.719304 0 356.173913 159.454609 356.173913 356.173913v311.652174c0 196.719304-159.454609 356.173913-356.173913 356.173913H356.173913C159.454609 1024 0 864.545391 0 667.826087V356.173913C0 159.454609 159.454609 0 356.173913 0h311.652174z m0 556.521739a111.304348 111.304348 0 1 0 0 222.608696 111.304348 111.304348 0 0 0 0-222.608696z m-44.521739-267.130435H400.695652a66.782609 66.782609 0 0 0-66.782609 66.782609v333.913044a66.782609 66.782609 0 0 0 66.782609 66.782608h167.602087A133.565217 133.565217 0 0 1 690.086957 536.108522v0.022261L690.086957 356.173913a66.782609 66.782609 0 0 0-66.782609-66.782609z m44.521739 322.782609a11.130435 11.130435 0 0 1 11.130435 11.130435v55.652174H734.608696l2.003478 0.178087a11.130435 11.130435 0 0 1-2.003478 22.082782h-66.782609l-2.003478-0.178087A11.130435 11.130435 0 0 1 656.695652 690.086957v-66.782609l0.178087-2.003478A11.130435 11.130435 0 0 1 667.826087 612.173913z m-113.819826-222.430609l3.450435 0.044522c8.192 0.667826 15.026087 2.626783 20.48 5.87687 5.476174 3.272348 9.839304 7.390609 13.06713 12.377043 3.227826 4.986435 5.453913 10.640696 6.633739 16.940522 1.179826 6.322087 1.580522 12.8 1.179826 19.456a78.358261 78.358261 0 0 1-3.450434 19.033043 97.302261 97.302261 0 0 1-7.123479 16.962783 107.609043 107.609043 0 0 1-9.416348 14.558609c-3.428174 4.452174-6.856348 8.45913-10.284521 12.04313a198.366609 198.366609 0 0 1-32.946087 27.425391 117.381565 117.381565 0 0 1-14.246957 8.080696c-4.274087 2.003478-7.613217 2.982957-9.99513 2.982957-2.626783 0.133565-6.010435-0.77913-10.084174-2.782609a103.66887 103.66887 0 0 1-13.445565-8.080696 190.642087 190.642087 0 0 1-15.449044-12.065391c-5.409391-4.652522-10.752-9.572174-16.027826-14.758957-3.428174-3.31687-7.123478-7.168-11.063652-11.575652a124.68313 124.68313 0 0 1-11.197217-14.447304 97.168696 97.168696 0 0 1-8.993392-17.051826 56.832 56.832 0 0 1-4.162782-19.522783c-0.26713-6.92313 0.467478-13.401043 2.181565-19.456s4.296348-11.464348 7.724522-16.250435c3.428174-4.786087 7.635478-8.815304 12.666434-12.065391 5.008696-3.250087 10.685217-5.565217 17.007305-6.878609 3.161043-0.667826 6.322087-0.75687 9.505391-0.289391 3.161043 0.445217 6.255304 1.246609 9.282783 2.381913 3.049739 1.113043 5.943652 2.56 8.72626 4.296348 2.760348 1.714087 5.38713 3.517217 7.902609 5.38713 5.787826 4.385391 11.353043 9.638957 16.62887 15.738435a122.88 122.88 0 0 1 13.846261-14.758956c4.229565-3.561739 8.993391-6.834087 14.336-9.772522 5.342609-2.916174 10.907826-4.185043 16.717913-3.784348z" fill="#B991E2" p-id="6221"></path></svg>