<svg xmlns="http://www.w3.org/2000/svg" xmlns:xlink="http://www.w3.org/1999/xlink" width="26" height="26.00048828125" viewBox="0 0 26 26.00048828125" fill="none">
<path d="M8.55851 4.51429C9.0843 4.51429 9.51057 4.11002 9.51057 3.61144L9.51057 3.31049L16.4924 3.31049L16.4924 3.61144C16.4924 4.11005 16.9187 4.51429 17.4445 4.51429C17.9703 4.51429 18.3966 4.11002 18.3966 3.61144L18.3966 0.902848C18.3966 0.404239 17.9703 0 17.4445 0C16.9187 0 16.4924 0.404268 16.4924 0.902848L16.4924 1.50474L9.51057 1.50474L9.51057 0.902848C9.51057 0.404239 9.08427 0 8.55851 0C8.03275 0 7.60645 0.404268 7.60645 0.902848L7.60645 3.61141C7.60645 4.11002 8.03275 4.51429 8.55851 4.51429Z"   fill="#EF6692" >
</path>
<path d="M21.2048 1.02893C20.679 1.02893 20.2527 1.43319 20.2527 1.93177C20.2527 2.43038 20.679 2.83464 21.2048 2.83464C22.799 2.83464 24.0959 4.08881 24.0959 5.63049L24.0959 9.14532L1.90414 9.14532L1.90414 5.6284C1.90414 4.08678 3.20095 2.83255 4.7952 2.83255C5.32099 2.83255 5.74726 2.42829 5.74726 1.92971C5.74726 1.43113 5.32096 1.02686 4.7952 1.02686C2.15116 1.02686 0 3.09105 0 5.6284L0 21.3969C0 23.9342 2.15116 25.9986 4.79504 25.9986L21.2048 26.0006C23.8489 26.0006 26 23.9363 26 21.3989L26 5.63049C26 3.09311 23.8489 1.02893 21.2048 1.02893ZM21.205 24.1949L4.7952 24.1929C3.20095 24.1929 1.90414 22.9387 1.90414 21.3969L1.90414 10.951L24.0959 10.951L24.0959 21.3989C24.0959 22.9407 22.799 24.1949 21.205 24.1949Z"   fill="#EF6692" >
</path>
<path d="M19.0391 13.4344C18.6029 13.131 18.0084 13.2065 17.3342 13.5478L14.598 15.0648C14.4394 15.1406 14.32 15.2928 14.201 15.4445C13.963 15.1411 13.6066 14.9513 13.21 14.9513L12.4961 14.9513C12.1789 14.9513 11.8618 15.1028 11.6238 15.3304C11.6238 15.2166 11.5043 15.1406 11.425 15.0648L8.68874 13.5478C8.05424 13.1686 7.42012 13.131 6.98391 13.4344C6.50804 13.6998 6.27002 14.2682 6.27002 15.0267L6.27002 18.1747C6.27002 18.9332 6.5477 19.5018 6.98391 19.8431C7.22184 19.9948 7.49907 20.0707 7.77666 20.0707C8.09391 20.0707 8.41127 19.9948 8.72851 19.8431L11.3461 18.6298C11.5047 18.554 11.6234 18.44 11.7027 18.3262C11.901 18.5158 12.2185 18.6298 12.4961 18.6298L13.21 18.6298C13.5669 18.6298 13.9239 18.4402 14.1619 18.1747C14.2808 18.3643 14.4394 18.554 14.598 18.6298L17.2149 19.8431C17.5322 19.9948 17.8495 20.0707 18.1668 20.0707C18.484 20.0707 18.7619 19.9948 18.9602 19.8431C19.4757 19.5397 19.753 18.9332 19.753 18.1747L19.753 15.0267C19.753 14.2682 19.515 13.6998 19.0391 13.4344ZM10.0767 16.7712C10.0767 16.5437 10.2359 16.3921 10.4738 16.3921L11.3461 16.3921L11.3461 17.189L10.4738 17.189C10.2359 17.151 10.0767 16.9608 10.0767 16.7712ZM15.6287 17.1509L14.598 17.1509C14.5584 17.1509 14.5184 17.1508 14.4787 17.1129L14.4787 16.3921C14.5184 16.3921 14.5584 16.3541 14.598 16.3541L15.6287 16.3541C15.827 16.3541 16.0251 16.5063 16.0251 16.7338C16.0251 16.9614 15.8667 17.1509 15.6287 17.1509Z"   fill="#EF6692" >
</path>
</svg>
