<?xml version="1.0" standalone="no"?><!DOCTYPE svg PUBLIC "-//W3C//DTD SVG 1.1//EN" "http://www.w3.org/Graphics/SVG/1.1/DTD/svg11.dtd"><svg t="1741436297097" class="icon" viewBox="0 0 1024 1024" version="1.1" xmlns="http://www.w3.org/2000/svg" p-id="1774" xmlns:xlink="http://www.w3.org/1999/xlink" width="200" height="200"><path d="M890.24 704h-42.666667V192a19.84 19.84 0 0 0-19.84-19.84H378.453333a19.84 19.84 0 0 0-19.626666 19.84v154.453333h-42.666667V192a62.506667 62.506667 0 0 1 62.293333-62.506667H827.733333A62.506667 62.506667 0 0 1 890.24 192zM509.013333 765.44h-130.56A62.506667 62.506667 0 0 1 316.16 704v-162.133333h42.666667V704a19.626667 19.626667 0 0 0 19.626666 19.84h130.56z" fill="#8a8a8a" p-id="1775"></path><path d="M119.466667 453.12l124.16 71.68a6.826667 6.826667 0 0 0 10.24-5.76v-143.36a6.826667 6.826667 0 0 0-10.24-5.973333L119.466667 441.386667a6.826667 6.826667 0 0 0 0 11.733333z" fill="#8a8a8a" p-id="1776"></path><path d="M205.653333 426.026667h186.666667v42.666666H205.653333z" fill="#8a8a8a" p-id="1777"></path><path d="M550.186667 896a62.506667 62.506667 0 0 1-62.506667-64V327.253333a62.293333 62.293333 0 0 1 39.253333-58.026666l277.333334-111.146667a62.506667 62.506667 0 0 1 85.333333 58.026667v505.173333a62.293333 62.293333 0 0 1-39.253333 58.026667l-277.333334 111.146666a62.506667 62.506667 0 0 1-22.826666 5.546667zM827.733333 196.266667a19.413333 19.413333 0 0 0-7.466666 1.493333l-277.333334 111.146667a19.626667 19.626667 0 0 0-12.586666 18.346666V832a19.84 19.84 0 0 0 8.746666 16.426667 19.2 19.2 0 0 0 18.56 1.92l277.333334-111.146667a19.626667 19.626667 0 0 0 12.373333-18.346667V216.106667a19.84 19.84 0 0 0-8.746667-16.426667 19.413333 19.413333 0 0 0-10.88-3.413333z" fill="#8a8a8a" p-id="1778"></path></svg>