<svg t="1744300160234" class="icon" viewBox="0 0 1024 1024" version="1.1" xmlns="http://www.w3.org/2000/svg" p-id="2789" width="200" height="200"><path d="M896.236308 743.266462a371.121231 371.121231 0 0 0-106.338462-74.358154 245.602462 245.602462 0 0 0 91.332923-191.369846c0-136.388923-113.703385-248.241231-250.092307-246.153847a246.272 246.272 0 0 0-242.451693 246.153847c0 77.272615 35.682462 146.195692 91.332923 191.40923a370.412308 370.412308 0 0 0-106.338461 74.31877 366.867692 366.867692 0 0 0-107.835077 250.958769 9.846154 9.846154 0 0 0 9.846154 10.082461h68.923077a9.806769 9.806769 0 0 0 9.846153-9.452307 278.173538 278.173538 0 0 1 82.077539-188.967385 278.921846 278.921846 0 0 1 198.537846-82.195692c74.948923 0 145.486769 29.144615 198.498462 82.195692a279.315692 279.315692 0 0 1 82.116923 188.928c0.118154 5.316923 4.568615 9.491692 9.846154 9.491692h68.923076a9.846154 9.846154 0 0 0 9.846154-10.082461 366.001231 366.001231 0 0 0-108.071384-250.958769z m-261.159385-108.189539a156.199385 156.199385 0 0 1-111.379692-46.158769 156.120615 156.120615 0 0 1-46.158769-112.994462 157.774769 157.774769 0 0 1 44.662153-108.307692 156.908308 156.908308 0 0 1 111.261539-47.616 158.444308 158.444308 0 0 1 112.009846 45.056 156.356923 156.356923 0 0 1 47.261538 112.482462 156.396308 156.396308 0 0 1-46.158769 111.379692 156.672 156.672 0 0 1-111.497846 46.158769zM326.774154 510.030769a313.265231 313.265231 0 0 1 3.544615-89.718154 9.924923 9.924923 0 0 0-5.513846-10.830769 155.529846 155.529846 0 0 1-45.410461-30.877538 156.987077 156.987077 0 0 1-47.655385-117.444923A156.750769 156.750769 0 0 1 276.48 155.805538a156.711385 156.711385 0 0 1 114.688-47.655384 157.341538 157.341538 0 0 1 130.953846 72.388923 9.846154 9.846154 0 0 0 11.421539 3.938461 305.388308 305.388308 0 0 1 68.096-15.241846 9.846154 9.846154 0 0 0 7.758769-14.296615A246.587077 246.587077 0 0 0 393.137231 19.692308C256.590769 17.604923 142.848 129.457231 142.848 265.728c0 77.272615 35.564308 146.195692 91.332923 191.409231a370.018462 370.018462 0 0 0-106.456615 74.318769A366.08 366.08 0 0 0 19.692308 782.532923a9.846154 9.846154 0 0 0 9.846154 10.082462h69.04123a9.806769 9.806769 0 0 0 9.846154-9.452308 278.173538 278.173538 0 0 1 82.116923-188.967385 277.858462 277.858462 0 0 1 128.827077-73.452307 9.846154 9.846154 0 0 0 7.404308-10.712616z" fill="#5686E1" p-id="2790"></path></svg>