<?xml version="1.0" standalone="no"?><!DOCTYPE svg PUBLIC "-//W3C//DTD SVG 1.1//EN" "http://www.w3.org/Graphics/SVG/1.1/DTD/svg11.dtd"><svg t="1744286674414" class="icon" viewBox="0 0 1024 1024" version="1.1" xmlns="http://www.w3.org/2000/svg" p-id="2916" xmlns:xlink="http://www.w3.org/1999/xlink" width="200" height="200"><path d="M804.633884 907.161102h-58.08752v-66.385737h58.08752a33.192869 33.192869 0 0 0 33.192869-33.192869V99.578606a33.192869 33.192869 0 0 0-33.192869-33.192869H219.11168a33.192869 33.192869 0 0 0-33.192869 33.192869v708.667747H119.533074V99.578606a99.578606 99.578606 0 0 1 99.578606-99.578606h585.522204a99.578606 99.578606 0 0 1 99.578606 99.578606v708.667747a99.578606 99.578606 0 0 1-99.578606 98.914749z" fill="#5686E1" p-id="2917"></path><path d="M677.505197 1023.668071a99.578606 99.578606 0 0 1-21.907293-2.655429l-458.725446-102.897893A99.578606 99.578606 0 0 1 119.533074 821.191572V115.511183A99.578606 99.578606 0 0 1 240.355116 18.919935l458.725446 103.229822a99.578606 99.578606 0 0 1 77.339384 96.591248v705.680389a99.578606 99.578606 0 0 1-99.578606 99.578606z m-7.302431-66.385737a33.192869 33.192869 0 0 0 27.550081-6.306645 33.192869 33.192869 0 0 0 12.281361-25.558509V218.741005a33.192869 33.192869 0 0 0-25.558508-33.192869L225.750254 83.646029a33.192869 33.192869 0 0 0-27.550081 6.306645 33.192869 33.192869 0 0 0-12.281362 25.558509v705.680389a33.192869 33.192869 0 0 0 25.558509 33.192869z" fill="#5686E1" p-id="2918"></path><path d="M610.455602 697.050243a33.192869 33.192869 0 0 1-33.192868-33.192869v-170.611345a33.192869 33.192869 0 0 1 66.385737 0V663.857374a33.192869 33.192869 0 0 1-33.192869 33.192869z" fill="#5686E1" p-id="2919"></path></svg>