<svg t="1744300179384" class="icon" viewBox="0 0 1024 1024" version="1.1" xmlns="http://www.w3.org/2000/svg" p-id="2992" width="200" height="200"><path d="M795.8 700.4V441.3c0-138.7-90.2-245.6-227.9-279.2v-37.8c-0.2-41.9-33.3-60.1-54.8-60.3h-0.7c-26.9 0-57.3 22.1-56.8 59.5l-0.1 39.1c-129.8 26.2-228.1 140-228.1 278.7v259.6l-91.1 91.9v28.8h751v-28.8l-91.5-92.4z m-66.9 53.4H295.2V441.3c0-116.1 90.4-218.2 217.8-218.2 124.6 0 215.9 106.4 215.9 218.2v312.5zM511.6 960c48 0 74.8-40.2 77.9-67.6H433.7c3.8 32.1 35.1 67.6 77.9 67.6z" fill="#5686E1" p-id="2993"></path></svg>