<svg xmlns="http://www.w3.org/2000/svg" xmlns:xlink="http://www.w3.org/1999/xlink" width="23.947021484375" height="23.65234375" viewBox="0 0 20 23" fill="none">
    <path d="M10.0455 19.7608L9.96218 19.7608C9.58835 19.7608 9.28271 19.45 9.28271 19.0698L9.28271 14.4122C9.28271 14.032 9.58835 13.7212 9.96218 13.7212L10.0455 13.7212C10.4194 13.7212 10.725 14.032 10.725 14.4122L10.725 19.0672C10.725 19.45 10.4194 19.7608 10.0455 19.7608Z"   fill="#5686E1" >
    </path>
    <path d="M9.98989 0C6.98913 0 5.05178 1.28962 4.12478 3.46041C3.53119 4.85022 3.42763 6.32224 3.56655 7.70692L3.58424 7.85592C3.75094 9.1661 4.40262 10.728 5.33973 11.861L5.39277 11.9252L0.621369 15.997C0.609244 16.0074 0.597264 16.0179 0.585425 16.0285C0.573586 16.0392 0.561892 16.05 0.550341 16.0611C0.538805 16.0721 0.527413 16.0832 0.516165 16.0946C0.504918 16.1059 0.493819 16.1174 0.482874 16.129C0.471929 16.1406 0.461144 16.1524 0.450518 16.1643C0.439891 16.1763 0.429434 16.1883 0.419146 16.2005C0.40884 16.2127 0.398704 16.2251 0.388734 16.2376C0.378765 16.2501 0.368964 16.2628 0.359333 16.2755C0.349702 16.2883 0.340245 16.3012 0.330967 16.3142C0.321672 16.3272 0.312561 16.3404 0.303637 16.3537C0.294713 16.367 0.285963 16.3804 0.277393 16.3939C0.268823 16.4075 0.260427 16.4211 0.25221 16.4349C0.244009 16.4486 0.235994 16.4625 0.228164 16.4765C0.220333 16.4905 0.212688 16.5045 0.205228 16.5188C0.197769 16.533 0.190503 16.5472 0.18343 16.5617C0.176358 16.576 0.169479 16.5905 0.162794 16.6051C0.156125 16.6197 0.149642 16.6344 0.143344 16.6492C0.137063 16.6639 0.130976 16.6788 0.125082 16.6937C0.119188 16.7087 0.113497 16.7237 0.108007 16.7388C0.102517 16.7539 0.0972298 16.7691 0.0921444 16.7843C0.0870588 16.7995 0.0821841 16.8148 0.0775195 16.8302C0.072855 16.8456 0.0683925 16.861 0.0641323 16.8765C0.0598719 16.892 0.0558221 16.9076 0.0519828 16.9232C0.0481434 16.9388 0.0445147 16.9545 0.0410962 16.9702C0.0376779 16.9859 0.03447 17.0017 0.0314726 17.0175C0.0284751 17.0333 0.0256966 17.0491 0.0231371 17.065C0.0205608 17.0809 0.0182032 17.0968 0.0160647 17.1128C0.0139092 17.1287 0.0119727 17.1447 0.0102551 17.1607C0.00853743 17.1767 0.00703874 17.1927 0.00575895 17.2087C0.00447916 17.2248 0.00341 17.2408 0.0025511 17.2569C0.00169238 17.273 0.00105239 17.289 0.00063151 17.3051C0.000210439 17.3212 0 17.3373 0 17.3534L0 21.2326C0 22.2113 0.7805 23 1.73781 23L18.2622 23C19.2245 23 20 22.2062 20 21.2326L20 17.3534L19.9975 17.2481C19.9671 16.7626 19.7449 16.3078 19.3761 15.9919L14.6653 11.9945L14.7386 11.9123C15.711 10.7845 16.3299 9.27656 16.5319 7.73518C16.7189 6.33766 16.5875 4.71664 15.9308 3.31141C14.9608 1.22283 12.9906 0 9.98989 0ZM9.98989 1.76745C12.3314 1.76745 13.6827 2.60751 14.3647 4.06925C14.8522 5.11483 14.9558 6.40959 14.8118 7.5014C14.6097 9.02223 13.8899 10.4994 12.8239 11.324C12.8109 11.334 12.7981 11.3443 12.7857 11.355C12.7732 11.3658 12.7611 11.3768 12.7492 11.3883C12.7374 11.3997 12.7259 11.4114 12.7147 11.4235C12.7036 11.4356 12.6927 11.448 12.6823 11.4607C12.6718 11.4734 12.6617 11.4864 12.6519 11.4998C12.6422 11.5131 12.6328 11.5266 12.6239 11.5405C12.6149 11.5543 12.6063 11.5684 12.5981 11.5828C12.5899 11.5972 12.5822 11.6117 12.5748 11.6266C12.5675 11.6414 12.5605 11.6564 12.554 11.6716C12.5475 11.6868 12.5414 11.7022 12.5358 11.7178C12.5301 11.7333 12.5249 11.749 12.5201 11.7649C12.5153 11.7808 12.5111 11.7968 12.5072 11.8129C12.5033 11.829 12.4999 11.8452 12.497 11.8615C12.494 11.8779 12.4915 11.8942 12.4895 11.9107C12.4875 11.9272 12.4859 11.9437 12.4848 11.9602C12.4838 11.9768 12.4831 11.9934 12.4829 12.01C12.4754 12.2797 12.5916 12.5366 12.7936 12.7087L18.2672 17.3534L18.2672 21.23L1.74034 21.23L1.74034 17.3508L7.24677 12.6522C7.44885 12.4801 7.56251 12.2283 7.55746 11.9611C7.55241 11.694 7.43116 11.4448 7.22657 11.2804C6.22884 10.484 5.42308 8.76277 5.29931 7.52966C5.1907 6.41986 5.27153 5.21759 5.72114 4.16687C6.37029 2.6409 7.67618 1.76745 9.98989 1.76745Z"   fill="#5685E1" >
    </path>
</svg>
