<?xml version="1.0" standalone="no"?><!DOCTYPE svg PUBLIC "-//W3C//DTD SVG 1.1//EN" "http://www.w3.org/Graphics/SVG/1.1/DTD/svg11.dtd"><svg t="1741275941889" class="icon" viewBox="0 0 1024 1024" version="1.1" xmlns="http://www.w3.org/2000/svg" p-id="3435" xmlns:xlink="http://www.w3.org/1999/xlink" width="200" height="200"><path d="M-589.328 960" fill="#2c2c2c" p-id="3436"></path><path d="M915.424 631.536c-16.24 3.344-33.712 6.544-52.16 9.568-3.504 9.488-7.392 18.848-11.648 28.016 10.944 15.168 21.008 29.76 30.128 43.664 14.56 22.16 11.552 51.584-7.2 70.288l-91.472 91.472c-10.848 10.832-25.168 16.432-39.6 16.432-10.656 0-21.36-3.024-30.688-9.216-13.936-9.04-28.496-19.12-43.664-30.064-9.152 4.24-18.496 8.08-27.968 11.552-3.04 18.784-6.32 36.32-9.712 52.464-5.536 25.84-28.352 44.336-54.768 44.336l-129.376 0c-26.4 0-49.232-18.48-54.752-44.336-3.456-16.16-6.72-33.68-9.728-52.464-9.424-3.472-18.704-7.296-27.824-11.504-15.44 11.104-30.16 21.216-44 30.176-9.296 6.08-19.904 9.056-30.48 9.056-14.416 0-28.752-5.616-39.584-16.432L149.456 783.04c-18.672-18.656-21.76-47.856-7.344-70.032 8.992-13.872 19.072-28.576 30.176-44.016-4.208-9.088-8-18.352-11.504-27.792-18.752-3.04-36.32-6.336-52.464-9.744C82.448 625.936 64 603.136 64 576.688l0-129.376c0-26.432 18.448-49.248 44.32-54.736 16.144-3.456 33.696-6.72 52.464-9.744 3.488-9.456 7.296-18.736 11.504-27.792-11.104-15.472-21.184-30.16-30.176-44.016-14.416-22.192-11.328-51.376 7.344-70.08l91.472-91.456c10.832-10.816 25.168-16.4 39.584-16.4 10.576 0 21.184 2.992 30.48 9.024 13.84 8.976 28.576 19.072 44 30.208 9.104-4.24 18.4-8.032 27.824-11.504 3.008-18.784 6.288-36.336 9.728-52.464 5.52-25.872 28.352-44.352 54.752-44.352l129.376 0c26.4 0 49.232 18.48 54.768 44.352 3.408 16.128 6.672 33.68 9.712 52.464 9.424 3.472 18.72 7.264 27.824 11.504 15.44-11.12 30.128-21.232 44.016-30.208 9.28-6.048 19.904-9.024 30.464-9.024 14.416 0 28.752 5.6 39.6 16.4l91.472 91.456c18.656 18.704 21.712 47.888 7.344 70.08-8.992 13.856-19.056 28.544-30.176 44.016 4.208 9.12 8.048 18.432 11.552 27.904 18.432 2.976 35.92 6.192 52.16 9.552C941.376 397.904 960 420.8 960 447.312l0 129.376C960 603.2 941.376 626.128 915.424 631.536L915.424 631.536zM904 447.312c-25.344-5.264-53.424-10.016-83.728-14.208-7.568-29.632-19.184-57.568-34.448-83.216 18.624-24.544 35.168-47.904 49.088-69.328l-91.424-91.504c-21.504 13.968-44.816 30.496-69.392 49.12-25.616-15.184-53.488-26.848-83.12-34.4-4.192-30.544-8.976-58.752-14.288-83.776l-129.376 0c-5.312 25.024-10.08 53.232-14.288 83.776-29.632 7.568-57.504 19.216-83.104 34.4-24.592-18.624-47.904-35.152-69.392-49.12l-91.472 91.504c13.984 21.424 30.528 44.784 49.152 69.328-15.216 25.648-26.848 53.552-34.416 83.136-30.56 4.176-58.736 8.976-83.776 14.288l0 129.376c25.024 5.328 53.216 10.112 83.776 14.32 7.568 29.6 19.2 57.504 34.416 83.104-18.624 24.592-35.168 47.904-49.152 69.36l91.472 91.488c21.488-13.952 44.8-30.496 69.392-49.104 25.616 15.168 53.472 26.832 83.104 34.384 4.208 30.576 8.976 58.736 14.288 83.792l129.376 0c5.312-25.056 10.096-53.216 14.288-83.792 29.68-7.6 57.6-19.216 83.248-34.464 24.368 18.464 47.6 35.008 69.264 49.184l91.424-91.488c-14.192-21.664-30.688-44.864-49.136-69.248 15.216-25.664 26.912-53.664 34.496-83.328 30.32-4.192 58.384-8.944 83.728-14.208L904 447.312 904 447.312zM512.016 680.016c-92.848 0-168.032-75.216-168.032-168.016 0-92.784 75.2-168.016 168.032-168.016 92.752 0 168 75.232 168 168.016C680.016 604.8 604.784 680.016 512.016 680.016L512.016 680.016zM512.016 400c-61.888 0-112.032 50.144-112.032 112s50.16 112.016 112.032 112.016c61.84 0 112-50.16 112-112.016S573.856 400 512.016 400L512.016 400z" fill="#2c2c2c" p-id="3437"></path></svg>