<?xml version="1.0" standalone="no"?><!DOCTYPE svg PUBLIC "-//W3C//DTD SVG 1.1//EN" "http://www.w3.org/Graphics/SVG/1.1/DTD/svg11.dtd"><svg t="1741276561153" class="icon" viewBox="0 0 1024 1024" version="1.1" xmlns="http://www.w3.org/2000/svg" p-id="5410" xmlns:xlink="http://www.w3.org/1999/xlink" width="200" height="200"><path d="M860.898198 404.512421 860.898198 404.512421c-27.433025 0-49.878227 22.445202-49.878227 49.878227L811.019971 618.490015 420.473453 618.490015c-6.982952-49.379445-49.878227-87.785679-100.754019-87.785679L235.924014 530.704335l0-324.208475c0-32.91963-26.934243-59.853872-59.853872-59.853872l-3.990258 0c-32.91963 0-59.853872 26.934243-59.853872 59.853872l0 678.343887c0 32.91963 26.934243 59.853872 59.853872 59.853872l3.990258 0c28.430589 0 52.870921-20.450073 58.357526-47.384316l576.093522 0c1.496347 26.43546 22.943984 47.384316 49.878227 47.384316l0 0c27.433025 0 49.878227-22.445202 49.878227-49.878227L910.277642 454.390648C910.776425 426.957623 888.331223 404.512421 860.898198 404.512421zM205.997077 530.704335 205.997077 530.704335l0 29.926936 0 0L205.997077 618.490015l0 0 0 29.926936 0 0 0 29.428154 0 0 0 29.926936 0 0 0 159.610326 0 0 0 20.948855c-1.995129 14.963468-14.464686 26.43546-29.926936 26.43546l-3.990258 0c-16.459815 0-29.926936-13.467121-29.926936-29.926936l0-678.343887c0-16.459815 13.467121-29.926936 29.926936-29.926936l3.990258 0c16.459815 0 29.926936 13.467121 29.926936 29.926936L205.997077 530.704335zM235.924014 560.631271l83.795421 0c34.914759 0 63.844131 24.939113 70.3283 57.858743L235.924014 618.490015 235.924014 560.631271zM810.521189 867.382367 235.924014 867.382367l0-159.610326 574.597175 0L810.521189 867.382367zM810.521189 677.845105 235.924014 677.845105 235.924014 648.416951l574.597175 0L810.521189 677.845105zM880.849489 894.815392c0 10.97321-8.978081 19.951291-19.951291 19.951291-10.474428 0-19.452509-8.978081-19.951291-19.452509l0-27.931807 0 0 0-159.610326 0 0 0-29.926936 0 0L840.946907 648.416951l0 0 0-29.926936 0 0L840.946907 454.390648c0-10.97321 8.978081-19.951291 19.951291-19.951291l0 0c10.97321 0 19.951291 8.978081 19.951291 19.951291L880.849489 894.815392z" p-id="5411"></path></svg>