<?xml version="1.0" standalone="no"?><!DOCTYPE svg PUBLIC "-//W3C//DTD SVG 1.1//EN" "http://www.w3.org/Graphics/SVG/1.1/DTD/svg11.dtd"><svg t="1741426007356" class="icon" viewBox="0 0 1024 1024" version="1.1" xmlns="http://www.w3.org/2000/svg" p-id="1566" xmlns:xlink="http://www.w3.org/1999/xlink" width="200" height="200"><path d="M580.010667 917.213867L554.666667 871.543467l304.469333-175.086934V361.5232h53.282133V711.68a26.624 26.624 0 0 1-12.680533 22.8352zM442.999467 917.213867l-319.709867-182.613334A26.641067 26.641067 0 0 1 110.592 711.68V361.5232H163.84v334.933333l304.5376 175.086934zM199.406933 300.629333L174.08 254.958933l324.795733-187.733333a23.005867 23.005867 0 0 1 25.378134 0l324.778666 187.733333-25.378133 45.6704-312.149333-180.155733z" p-id="1567" fill="#5686E1"></path><path d="M884.514133 221.969067c-45.6704 0-83.746133 38.058667-83.746133 83.729066s38.075733 83.746133 83.746133 83.746134 83.729067-38.075733 83.729067-83.746134-38.058667-83.729067-83.729067-83.729066z m0 114.176c-17.7664 0-30.446933-12.680533-30.446933-30.446934s12.680533-30.446933 30.446933-30.446933 30.446933 12.680533 30.446934 30.446933S902.263467 336.213333 884.514133 336.213333z m-746.001066-114.176c-45.6704 0-83.746133 38.058667-83.746134 83.729066S92.842667 386.901333 138.513067 386.901333s83.729067-38.058667 83.729066-83.746133-38.058667-81.186133-83.729066-81.186133z m0 114.176c-17.7664 0-30.446933-12.680533-30.446934-30.446934s12.680533-30.446933 30.446934-30.446933S168.96 287.931733 168.96 305.698133 153.736533 336.213333 138.513067 336.213333z m372.992 461.806933c-45.6704 0-83.729067 38.058667-83.729067 83.746133s38.058667 83.729067 83.729067 83.729067 83.729067-38.058667 83.729066-83.729067-38.058667-83.746133-83.729066-83.746133z m0 114.193067c-17.749333 0-30.446933-12.680533-30.446934-30.446934 0-15.223467 12.6976-30.446933 30.446934-30.446933s30.446933 12.680533 30.446933 30.446933c0 15.223467-15.223467 30.446933-30.446933 30.446934z" p-id="1568" fill="#5686E1"></path><path d="M227.413333 304.8448a17.288533 17.288533 0 0 1-2.082133-0.136533l-25.412267-3.072a17.066667 17.066667 0 1 1 4.096-33.877334l25.412267 3.072a17.066667 17.066667 0 0 1-2.013867 34.013867zM428.219733 329.079467a17.066667 17.066667 0 0 1-2.065066-0.136534l-50.193067-6.058666a17.066667 17.066667 0 1 1 4.078933-33.877334l50.210134 6.058667a17.066667 17.066667 0 0 1-2.030934 34.013867z m-100.4032-12.117334a17.066667 17.066667 0 0 1-2.065066-0.136533l-50.210134-6.058667a17.066667 17.066667 0 1 1 4.096-33.877333l50.210134 6.058667a17.066667 17.066667 0 0 1-2.030934 34.013866zM503.842133 338.210133a17.066667 17.066667 0 0 1-2.065066-0.136533l-25.412267-3.072a17.066667 17.066667 0 1 1 4.096-33.877333l25.412267 3.072a17.066667 17.066667 0 0 1-2.030934 34.013866z" p-id="1569" fill="#5686E1"></path><path d="M680.738133 601.5488a17.066667 17.066667 0 0 1-12.5952-28.586667l17.271467-18.8928a17.066667 17.066667 0 0 1 25.207467 23.022934l-17.271467 18.909866a17.066667 17.066667 0 0 1-12.612267 5.546667zM731.8528 545.621333a17.066667 17.066667 0 0 1-12.5952-28.501333l33.8432-37.034667A17.066667 17.066667 0 0 1 778.24 503.04l-33.8432 37.0176a17.066667 17.066667 0 0 1-12.544 5.563733z m67.6864-74.069333a17.066667 17.066667 0 0 1-12.5952-28.586667l33.860267-37.0176a17.066667 17.066667 0 1 1 25.1904 23.022934l-33.8432 37.034666a17.066667 17.066667 0 0 1-12.612267 5.546667zM867.242667 397.482667a17.066667 17.066667 0 0 1-12.5952-28.5696l17.271466-18.909867a17.066667 17.066667 0 0 1 25.1904 23.04l-17.271466 18.8928a17.066667 17.066667 0 0 1-12.5952 5.546667z" p-id="1570" fill="#5686E1"></path><path d="M339.626667 588.6976a17.066667 17.066667 0 0 1-16.008534-11.127467l-8.9088-23.995733a17.066667 17.066667 0 1 1 32-11.946667l8.9088 23.995734a17.066667 17.066667 0 0 1-15.991466 23.074133zM423.253333 813.909333a17.066667 17.066667 0 0 1-15.991466-11.127466l-20.906667-56.32a17.066667 17.066667 0 1 1 32-11.946667l20.906667 56.32a17.066667 17.066667 0 0 1-10.069334 21.930667 16.810667 16.810667 0 0 1-5.9392 1.143466z m-41.796266-112.64a17.066667 17.066667 0 0 1-16.008534-11.127466l-20.906666-56.32a17.066667 17.066667 0 1 1 32-11.946667l20.906666 56.32a17.066667 17.066667 0 0 1-15.991466 23.005867zM453.0688 894.293333a17.066667 17.066667 0 0 1-15.991467-11.127466l-8.9088-23.995734a17.066667 17.066667 0 0 1 32-11.946666l8.9088 24.0128a17.066667 17.066667 0 0 1-10.069333 21.930666 16.878933 16.878933 0 0 1-5.9392 1.1264z" p-id="1571" fill="#5686E1"></path><path d="M512 307.2a202.564267 202.564267 0 1 0 202.564267 202.478933A202.564267 202.564267 0 0 0 512 307.2z m0 363.7248a161.160533 161.160533 0 1 1 161.160533-161.160533A161.160533 161.160533 0 0 1 512 670.839467z" p-id="1572" fill="#5686E1"></path></svg>