<?xml version="1.0" standalone="no"?><!DOCTYPE svg PUBLIC "-//W3C//DTD SVG 1.1//EN" "http://www.w3.org/Graphics/SVG/1.1/DTD/svg11.dtd"><svg t="1741187623798" class="icon" viewBox="0 0 1024 1024" version="1.1" xmlns="http://www.w3.org/2000/svg" p-id="1836" xmlns:xlink="http://www.w3.org/1999/xlink" width="200" height="200"><path d="M118.016 358.592a49.024 49.024 0 0 1 38.784-4.416l2.368 0.832 281.6 105.216c23.232 8 39.232 22.4 39.232 42.752v409.216c0 24.384-21.632 44.032-48 44.032a32.64 32.64 0 0 1-12.416-2.432L129.6 832.64c-10.816-3.968-33.6-12.352-33.6-40.768V395.776c0-15.552 8.384-29.568 22.016-37.12z m749.184-4.416a49.024 49.024 0 0 1 38.784 4.48c13.632 7.552 22.4 21.568 22.4 37.12v408.832c0 28.416-26.368 38.016-34.752 41.216l-2.048 0.768-288.384 107.584a34.688 34.688 0 0 1-11.2 2.048c-26.368 0-48-19.648-48-44.032v-409.6c0-27.968 23.232-36.8 33.216-40.384l3.2-1.216 285.568-106.816z m-3.2 69.632l-256 95.616v364.8l256-95.616v-364.8z m-704-0.384v352.384l256 107.2V518.976l-256-95.552z m322.816-354.048c18.816-7.168 39.616-7.168 58.368 0l364.032 136.832a35.84 35.84 0 0 1 22.784 33.984 35.84 35.84 0 0 1-23.616 32.832L539.2 414.976c-17.6 6.4-37.184 6.4-54.784 0h-0.384L119.616 273.024a34.944 34.944 0 0 1-20.8-20.48 36.16 36.16 0 0 1 20.416-46.72h0.384z m34.816 59.648a14.592 14.592 0 0 0-11.648 0H505.6L210.368 240.192l296.448 115.2c3.2 1.216 7.168 1.216 10.368 0l296.448-115.2z" fill="#bfbfbf" p-id="1837"></path></svg>