<?xml version="1.0" standalone="no"?><!DOCTYPE svg PUBLIC "-//W3C//DTD SVG 1.1//EN" "http://www.w3.org/Graphics/SVG/1.1/DTD/svg11.dtd"><svg t="1741512777575" class="icon" viewBox="0 0 1024 1024" version="1.1" xmlns="http://www.w3.org/2000/svg" p-id="3753" xmlns:xlink="http://www.w3.org/1999/xlink" width="200" height="200"><path d="M514.048 51.2c60.4672 0 118.1696 10.752 173.312 32.6144 25.7024 10.496 45.0048 30.4128 54.016 56.4224 8.192 23.552 7.168 48.896-2.7648 71.168l-4.1984 8.192-118.0672 204.2368 1.6384 1.4848c15.5648 15.0528 27.2896 33.4336 34.6624 54.1696l3.328 10.5472 0.6656 2.6624h236.288c21.248 0 41.984 7.4752 58.9824 20.736l7.0144 6.0416 6.5536 6.656c18.6368 22.1696 26.368 50.0736 20.736 76.032a497.1008 497.1008 0 0 1-58.7264 165.6832A465.152 465.152 0 0 1 813.056 901.12c-16.896 13.5168-37.5808 20.736-58.7264 20.736L744.3968 921.6a56.6272 56.6272 0 0 1-3.7888-0.3584l-3.6864-0.6144-8.96-2.3552a97.536 97.536 0 0 1-50.5856-36.096l-4.8128-7.5264-118.1696-204.4928-4.4544 1.1776v286.464c0 16.5376-10.8032 30.208-25.856 34.5088l-5.12 1.0752-4.9152 0.3584a35.6352 35.6352 0 0 1-35.584-31.0272l-0.3584-4.9152v-286.3104l-4.5568-1.28-118.016 204.3904c-11.264 19.712-28.4672 34.4576-48.64 41.8816l-7.7312 2.4064-7.9872 1.7408c-2.56 0.512-4.864 0.8192-7.5264 1.024l-9.8816 0.2048c-21.1968 0-41.8304-7.168-58.7264-20.736A465.1008 465.1008 0 0 1 100.6592 768c-29.696-50.176-49.152-105.5232-58.88-166.1952-3.5328-28.3136 4.096-55.6544 22.016-75.8784a98.304 98.304 0 0 1 63.3344-32.768l9.0112-0.4096 235.3664-0.0512 0.5632-2.304c5.9904-20.8896 16.64-40.448 30.72-56.8832l7.3216-7.936 1.6384-1.536-118.1184-204.544a94.976 94.976 0 0 1-11.3664-61.44l1.792-9.0112 2.6624-8.96c9.216-25.4464 28.8768-46.0288 54.1184-56.32A465.5616 465.5616 0 0 1 514.048 51.2zM373.4528 566.5792H136.192a23.1424 23.1424 0 0 0-17.92 7.7312 22.5792 22.5792 0 0 0-4.864 17.408c7.936 49.4592 24.7296 96.6144 50.0736 141.2608a405.0432 405.0432 0 0 0 96.2048 112.4864c7.0656 4.4032 13.5168 6.0928 19.0464 4.864a25.7024 25.7024 0 0 0 13.5168-8.3456l2.4576-3.2768 118.9376-203.3152-1.536-1.3824a141.3632 141.3632 0 0 1-37.9904-64.7168l-0.6656-2.7136z m520.4992-1.024h-236.3904l-0.512 2.4064a151.9104 151.9104 0 0 1-38.0928 64.8192l-1.6384 1.4848 118.4256 204.032c2.048 3.9424 6.5024 7.68 11.5712 9.728l3.8912 1.2288a20.3776 20.3776 0 0 0 18.2784-4.1472 391.2192 391.2192 0 0 0 97.1776-113.2032c25.3952-43.008 41.8304-89.7536 49.9712-140.7488a27.136 27.136 0 0 0-4.7616-17.8688 22.3744 22.3744 0 0 0-13.6192-7.3728l-4.3008-0.3072z m-378.88-110.848a74.752 74.752 0 0 0-75.008 74.9568 74.752 74.752 0 0 0 75.008 75.008 74.752 74.752 0 0 0 74.9568-75.008 74.752 74.752 0 0 0-74.9568-74.9568z m-1.024-331.6736a409.088 409.088 0 0 0-147.3536 28.1088 21.504 21.504 0 0 0-12.3392 13.1584 22.9376 22.9376 0 0 0 0.3584 15.7184l1.8432 3.584 118.2208 204.7488 2.6624-0.6656c9.984-2.4064 19.0464-3.9424 28.3136-4.5056l9.3184-0.3072c10.8544 0 20.7872 0.8704 30.208 2.7136l10.1376 2.4064 116.2752-204.6464a22.3232 22.3232 0 0 0 3.0208-15.104l-0.9728-3.9424a19.456 19.456 0 0 0-12.5952-13.312 388.3008 388.3008 0 0 0-147.0976-27.9552z" fill="#333333" p-id="3754"></path></svg>